<?xml version="1.0" encoding="UTF-8"?>
<!DOCTYPE svg PUBLIC "-//W3C//DTD SVG 1.1//EN" "http://www.w3.org/Graphics/SVG/1.1/DTD/svg11.dtd">
<svg xmlns="http://www.w3.org/2000/svg" version="1.1" width="3000px" height="3000px" style="shape-rendering:geometricPrecision; text-rendering:geometricPrecision; image-rendering:optimizeQuality; fill-rule:evenodd; clip-rule:evenodd" xmlns:xlink="http://www.w3.org/1999/xlink">
<g><path style="opacity:0.999" fill="#63b345" d="M 1487.5,-0.5 C 1495.83,-0.5 1504.17,-0.5 1512.5,-0.5C 1853.93,5.79374 2158.93,112.96 2427.5,321C 2696.91,536.695 2873.74,812.861 2958,1149.5C 3025.15,1439.78 3009.48,1725.45 2911,2006.5C 2790.1,2331.92 2583.27,2587.42 2290.5,2773C 2002.85,2948.28 1690.85,3020.94 1354.5,2991C 1007.23,2953.99 708.233,2815.82 457.5,2576.5C 218.59,2342.38 72.0895,2059.05 18,1726.5C -29.3245,1401.11 22.3422,1092.45 173,800.5C 314.266,536.234 515.766,331.067 777.5,185C 998.776,64.3475 1235.44,2.51415 1487.5,-0.5 Z"/></g>
<g><path style="opacity:1" fill="#d3e8c8" d="M 803.5,1134.5 C 684.922,1135.08 566.922,1135.08 449.5,1134.5C 449.5,1241.17 449.5,1347.83 449.5,1454.5C 448.501,1347.67 448.167,1240.67 448.5,1133.5C 567.001,1133.17 685.335,1133.5 803.5,1134.5 Z"/></g>
<g><path style="opacity:1" fill="#d3e8c8" d="M 1480.5,1134.5 C 1374.05,1134.71 1267.38,1134.71 1160.5,1134.5C 1160.5,1249.17 1160.5,1363.83 1160.5,1478.5C 1159.5,1363.67 1159.17,1248.67 1159.5,1133.5C 1266.67,1133.17 1373.67,1133.5 1480.5,1134.5 Z"/></g>
<g><path style="opacity:1" fill="#e4efdc" d="M 1519.5,1133.5 C 1626.5,1133.5 1733.5,1133.5 1840.5,1133.5C 1840.22,1360.72 1839.88,1587.39 1839.5,1813.5C 1732.83,1813.5 1626.17,1813.5 1519.5,1813.5C 1519.5,1586.83 1519.5,1360.17 1519.5,1133.5 Z"/></g>
<g><path style="opacity:1" fill="#fefefe" d="M 803.5,1134.5 C 922.326,1142.8 1014.16,1196.47 1079,1295.5C 1107.98,1344.31 1124.48,1397.31 1128.5,1454.5C 902.167,1454.5 675.833,1454.5 449.5,1454.5C 449.5,1347.83 449.5,1241.17 449.5,1134.5C 566.922,1135.08 684.922,1135.08 803.5,1134.5 Z"/></g>
<g><path style="opacity:1" fill="#fefefe" d="M 1480.5,1134.5 C 1480.5,1360.83 1480.5,1587.17 1480.5,1813.5C 1363.71,1803.66 1273.54,1749.66 1210,1651.5C 1178.02,1598.38 1161.52,1540.72 1160.5,1478.5C 1160.5,1363.83 1160.5,1249.17 1160.5,1134.5C 1267.38,1134.71 1374.05,1134.71 1480.5,1134.5 Z"/></g>
<g><path style="opacity:1" fill="#fefefe" d="M 2206.5,1133.5 C 2339.49,1136.61 2440.16,1194.61 2508.5,1307.5C 2533.69,1353 2547.69,1402 2550.5,1454.5C 2324.5,1454.5 2098.5,1454.5 1872.5,1454.5C 1881.41,1337.38 1935.25,1247.05 2034,1183.5C 2086.73,1151.44 2144.23,1134.77 2206.5,1133.5 Z"/></g>
<g><path style="opacity:1" fill="#e4efdc" d="M 448.5,1493.5 C 675.167,1493.5 901.833,1493.5 1128.5,1493.5C 1118.27,1615.44 1060.6,1707.94 955.5,1771C 907.373,1797.31 856.206,1811.81 802,1814.5C 685.259,1814.65 567.759,1814.48 449.5,1814C 448.501,1707.24 448.168,1600.4 448.5,1493.5 Z"/></g>
<g><path style="opacity:1" fill="#e4efdc" d="M 1871.5,1493.5 C 2098.31,1493 2324.97,1493.5 2551.5,1495C 2541.67,1608.55 2489.34,1697.22 2394.5,1761C 2304.36,1814.89 2210.69,1827.89 2113.5,1800C 2005.12,1764.29 1930.62,1693.12 1890,1586.5C 1879.55,1555.77 1873.39,1524.77 1871.5,1493.5 Z"/></g>
</svg>
